<svg version="1.1" width="290.28" height="175.986" viewBox="0 0 217.71 131.989" xmlns="http://www.w3.org/2000/svg" xmlns:xlink="http://www.w3.org/1999/xlink" stroke-linecap="butt" stroke-linejoin="round" overflow="hidden"><defs stroke-linecap="butt" stroke-linejoin="round"></defs><defs stroke-linecap="butt" stroke-linejoin="round"><clipPath id="pcc3cefee9c" stroke-linecap="butt" stroke-linejoin="round"><rect x="7.2" y="20.7494" width="203.31" height="104.04" stroke-linecap="butt" stroke-linejoin="round"/></clipPath></defs><g id="figure_1" stroke-linecap="butt" stroke-linejoin="round"><g id="patch_1" stroke-linecap="butt" stroke-linejoin="round"><path d=" M 0 131.989 L 217.71 131.989 L 217.71 0 L 0 0 Z" stroke-linecap="butt" stroke-linejoin="round" fill="none"/></g><g id="axes_1" stroke-linecap="butt" stroke-linejoin="round"><g id="patch_2" stroke-linecap="butt" stroke-linejoin="round"><path d=" M 53.37 27.6344 C 53.37 26.6203 52.943 25.6467 52.1838 24.9297 C 51.4245 24.2126 50.3937 23.8094 49.32 23.8094 C 48.2463 23.8094 47.2155 24.2126 46.4562 24.9297 C 45.697 25.6467 45.27 26.6203 45.27 27.6344" stroke="#000000" stroke-width="2" stroke-linecap="butt" stroke-linejoin="miter" fill="none" clip-path="url(#pcc3cefee9c)"/></g><g id="patch_3" stroke-linecap="butt" stroke-linejoin="round"><path d=" M 61.47 27.6344 C 61.47 26.6203 61.043 25.6467 60.2838 24.9297 C 59.5246 24.2126 58.4937 23.8094 57.42 23.8094 C 56.3463 23.8094 55.3154 24.2126 54.5562 24.9297 C 53.797 25.6467 53.37 26.6203 53.37 27.6344" stroke="#000000" stroke-width="2" stroke-linecap="butt" stroke-linejoin="miter" fill="none" clip-path="url(#pcc3cefee9c)"/></g><g id="patch_4" stroke-linecap="butt" stroke-linejoin="round"><path d=" M 69.57 27.6344 C 69.57 26.6203 69.143 25.6467 68.3838 24.9297 C 67.6245 24.2126 66.5937 23.8094 65.52 23.8094 C 64.4463 23.8094 63.4154 24.2126 62.6562 24.9297 C 61.897 25.6467 61.47 26.6203 61.47 27.6344" stroke="#000000" stroke-width="2" stroke-linecap="butt" stroke-linejoin="miter" fill="none" clip-path="url(#pcc3cefee9c)"/></g><g id="patch_5" stroke-linecap="butt" stroke-linejoin="round"><path d=" M 77.67 27.6344 C 77.67 26.6203 77.243 25.6467 76.4838 24.9297 C 75.7245 24.2126 74.6937 23.8094 73.62 23.8094 C 72.5463 23.8094 71.5154 24.2126 70.7562 24.9297 C 69.997 25.6467 69.57 26.6203 69.57 27.6344" stroke="#000000" stroke-width="2" stroke-linecap="butt" stroke-linejoin="miter" fill="none" clip-path="url(#pcc3cefee9c)"/></g><g id="patch_6" stroke-linecap="butt" stroke-linejoin="round"><path d=" M 150.57 27.6344 C 150.57 26.6203 150.143 25.6467 149.384 24.9297 C 148.625 24.2126 147.594 23.8094 146.52 23.8094 C 145.446 23.8094 144.415 24.2126 143.656 24.9297 C 142.897 25.6467 142.47 26.6203 142.47 27.6344" stroke="#000000" stroke-width="2" stroke-linecap="butt" stroke-linejoin="miter" fill="none" clip-path="url(#pcc3cefee9c)"/></g><g id="patch_7" stroke-linecap="butt" stroke-linejoin="round"><path d=" M 158.67 27.6344 C 158.67 26.6203 158.243 25.6467 157.484 24.9297 C 156.725 24.2126 155.694 23.8094 154.62 23.8094 C 153.546 23.8094 152.515 24.2126 151.756 24.9297 C 150.997 25.6467 150.57 26.6203 150.57 27.6344" stroke="#000000" stroke-width="2" stroke-linecap="butt" stroke-linejoin="miter" fill="none" clip-path="url(#pcc3cefee9c)"/></g><g id="patch_8" stroke-linecap="butt" stroke-linejoin="round"><path d=" M 166.77 27.6344 C 166.77 26.6203 166.343 25.6467 165.584 24.9297 C 164.825 24.2126 163.794 23.8094 162.72 23.8094 C 161.646 23.8094 160.615 24.2126 159.856 24.9297 C 159.097 25.6467 158.67 26.6203 158.67 27.6344" stroke="#000000" stroke-width="2" stroke-linecap="butt" stroke-linejoin="miter" fill="none" clip-path="url(#pcc3cefee9c)"/></g><g id="patch_9" stroke-linecap="butt" stroke-linejoin="round"><path d=" M 174.87 27.6344 C 174.87 26.6203 174.443 25.6467 173.684 24.9297 C 172.925 24.2126 171.894 23.8094 170.82 23.8094 C 169.746 23.8094 168.715 24.2126 167.956 24.9297 C 167.197 25.6467 166.77 26.6203 166.77 27.6344" stroke="#000000" stroke-width="2" stroke-linecap="butt" stroke-linejoin="miter" fill="none" clip-path="url(#pcc3cefee9c)"/></g><g id="patch_10" stroke-linecap="butt" stroke-linejoin="round"><path d=" M 110.07 65.8844 C 111.144 65.8844 112.175 65.4811 112.934 64.764 C 113.693 64.047 114.12 63.0734 114.12 62.0594 C 114.12 61.0453 113.693 60.0717 112.934 59.3547 C 112.175 58.6376 111.144 58.2344 110.07 58.2344" stroke="#000000" stroke-width="2" stroke-linecap="butt" stroke-linejoin="miter" fill="none" clip-path="url(#pcc3cefee9c)"/></g><g id="patch_11" stroke-linecap="butt" stroke-linejoin="round"><path d=" M 110.07 73.5344 C 111.144 73.5344 112.175 73.1311 112.934 72.414 C 113.693 71.697 114.12 70.7234 114.12 69.7094 C 114.12 68.6953 113.693 67.7217 112.934 67.0047 C 112.175 66.2876 111.144 65.8844 110.07 65.8844" stroke="#000000" stroke-width="2" stroke-linecap="butt" stroke-linejoin="miter" fill="none" clip-path="url(#pcc3cefee9c)"/></g><g id="patch_12" stroke-linecap="butt" stroke-linejoin="round"><path d=" M 110.07 81.1844 C 111.144 81.1844 112.175 80.7811 112.934 80.064 C 113.693 79.347 114.12 78.3734 114.12 77.3594 C 114.12 76.3453 113.693 75.3717 112.934 74.6547 C 112.175 73.9376 111.144 73.5344 110.07 73.5344" stroke="#000000" stroke-width="2" stroke-linecap="butt" stroke-linejoin="miter" fill="none" clip-path="url(#pcc3cefee9c)"/></g><g id="patch_13" stroke-linecap="butt" stroke-linejoin="round"><path d=" M 110.07 88.8344 C 111.144 88.8344 112.175 88.4311 112.934 87.714 C 113.693 86.997 114.12 86.0234 114.12 85.0094 C 114.12 83.9953 113.693 83.0217 112.934 82.3047 C 112.175 81.5876 111.144 81.1844 110.07 81.1844" stroke="#000000" stroke-width="2" stroke-linecap="butt" stroke-linejoin="miter" fill="none" clip-path="url(#pcc3cefee9c)"/></g><g id="line2d_1" stroke-linecap="butt" stroke-linejoin="round"><path d=" M 12.87 27.6344 L 45.27 27.6344 M 77.67 27.6344 L 110.07 27.6344" stroke="#000000" stroke-width="2" stroke-linecap="round" stroke-linejoin="round" fill="none" clip-path="url(#pcc3cefee9c)"/></g><g id="line2d_2" stroke-linecap="butt" stroke-linejoin="round"><path d=" M 110.07 27.6344 L 142.47 27.6344 M 174.87 27.6344 L 207.27 27.6344" stroke="#000000" stroke-width="2" stroke-linecap="round" stroke-linejoin="round" fill="none" clip-path="url(#pcc3cefee9c)"/></g><g id="line2d_3" stroke-linecap="butt" stroke-linejoin="round"><path d=" M 207.27 27.6344 L 207.27 73.5344 L 207.27 119.434" stroke="#000000" stroke-width="2" stroke-linecap="round" stroke-linejoin="round" fill="none" clip-path="url(#pcc3cefee9c)"/></g><g id="line2d_4" stroke-linecap="butt" stroke-linejoin="round"><path d=" M 207.27 119.434 L 158.67 119.434 L 110.07 119.434" stroke="#000000" stroke-width="2" stroke-linecap="round" stroke-linejoin="round" fill="none" clip-path="url(#pcc3cefee9c)"/></g><g id="line2d_5" stroke-linecap="butt" stroke-linejoin="round"><path d=" M 110.07 27.6344 L 110.07 58.2344 M 110.07 88.8344 L 110.07 119.434" stroke="#000000" stroke-width="2" stroke-linecap="round" stroke-linejoin="round" fill="none" clip-path="url(#pcc3cefee9c)"/></g><g id="line2d_6" stroke-linecap="butt" stroke-linejoin="round"><path d=" M 110.07 119.434 L 61.47 119.434 L 12.87 119.434" stroke="#000000" stroke-width="2" stroke-linecap="round" stroke-linejoin="round" fill="none" clip-path="url(#pcc3cefee9c)"/></g><g id="text_1" stroke-linecap="butt" stroke-linejoin="round"><g stroke-linecap="butt" stroke-linejoin="round" transform="matrix(0.14,0,0,-0.14,39.56,17.8378)"><defs stroke-linecap="butt" stroke-linejoin="round"><path d=" M 16.7969 72.9062 L 26.7031 72.9062 L 14.2031 8.20312 L 49.7031 8.20312 L 48.0938 0 L 2.6875 0 Z" id="DejaVuSans-Oblique-76" stroke-linecap="butt" stroke-linejoin="round"/><path d=" M 12.4062 8.29688 L 28.5156 8.29688 L 28.5156 63.9219 L 10.9844 60.4062 L 10.9844 69.3906 L 28.4219 72.9062 L 38.2812 72.9062 L 38.2812 8.29688 L 54.3906 8.29688 L 54.3906 0 L 12.4062 0 Z" id="DejaVuSans-49" stroke-linecap="butt" stroke-linejoin="round"/><path d=" M 10.5938 35.5 L 73.1875 35.5 L 73.1875 27.2031 L 10.5938 27.2031 Z" id="DejaVuSans-8722" stroke-linecap="butt" stroke-linejoin="round"/><path d=" M 16.8906 72.9062 L 31.6875 72.9062 L 40.1875 23.7812 L 68.4062 72.9062 L 83.5938 72.9062 L 69.3906 0 L 59.8125 0 L 72.2188 63.9219 L 43.6094 14.0156 L 33.9844 14.0156 L 24.7031 64.1094 L 12.3125 0 L 2.6875 0 Z" id="DejaVuSans-Oblique-77" stroke-linecap="butt" stroke-linejoin="round"/></defs><use width="100%" height="100%" xlink:href="#DejaVuSans-Oblique-76" stroke-linecap="butt" stroke-linejoin="round" transform="matrix(1,0,0,1,0,0.09375)"></use><use width="100%" height="100%" xlink:href="#DejaVuSans-49" stroke-linecap="butt" stroke-linejoin="round" transform="matrix(0.7,0,0,0.7,55.7129,-16.3125)"></use><use width="100%" height="100%" xlink:href="#DejaVuSans-8722" stroke-linecap="butt" stroke-linejoin="round" transform="matrix(1,0,0,1,122.466,0.09375)"></use><use width="100%" height="100%" xlink:href="#DejaVuSans-Oblique-77" stroke-linecap="butt" stroke-linejoin="round" transform="matrix(1,0,0,1,225.737,0.09375)"></use></g></g><g id="text_2" stroke-linecap="butt" stroke-linejoin="round"><g stroke-linecap="butt" stroke-linejoin="round" transform="matrix(0.14,0,0,-0.14,136.76,17.8378)"><defs stroke-linecap="butt" stroke-linejoin="round"><path d=" M 19.1875 8.29688 L 53.6094 8.29688 L 53.6094 0 L 7.32812 0 L 7.32812 8.29688 C 11.0677 12.1719 16.1667 17.3698 22.625 23.8906 C 29.0938 30.4219 33.1562 34.6354 34.8125 36.5312 C 37.9688 40.0729 40.1719 43.0729 41.4219 45.5312 C 42.6823 47.9896 43.3125 50.4062 43.3125 52.7812 C 43.3125 56.6562 41.9531 59.8125 39.2344 62.25 C 36.5156 64.6979 32.974 65.9219 28.6094 65.9219 C 25.5156 65.9219 22.25 65.3854 18.8125 64.3125 C 15.3854 63.2396 11.7188 61.6094 7.8125 59.4219 L 7.8125 69.3906 C 11.7812 70.9844 15.4896 72.1875 18.9375 73 C 22.3958 73.8125 25.5573 74.2188 28.4219 74.2188 C 35.974 74.2188 41.9948 72.3281 46.4844 68.5469 C 50.974 64.776 53.2188 59.7344 53.2188 53.4219 C 53.2188 50.4219 52.6562 47.5781 51.5312 44.8906 C 50.4167 42.2135 48.375 39.0521 45.4062 35.4062 C 44.5938 34.4583 42.0052 31.7292 37.6406 27.2188 C 33.2865 22.7083 27.1354 16.401 19.1875 8.29688 Z" id="DejaVuSans-50" stroke-linecap="butt" stroke-linejoin="round"/></defs><use width="100%" height="100%" xlink:href="#DejaVuSans-Oblique-76" stroke-linecap="butt" stroke-linejoin="round" transform="matrix(1,0,0,1,0,0.09375)"></use><use width="100%" height="100%" xlink:href="#DejaVuSans-50" stroke-linecap="butt" stroke-linejoin="round" transform="matrix(0.7,0,0,0.7,55.7129,-16.3125)"></use><use width="100%" height="100%" xlink:href="#DejaVuSans-8722" stroke-linecap="butt" stroke-linejoin="round" transform="matrix(1,0,0,1,122.466,0.09375)"></use><use width="100%" height="100%" xlink:href="#DejaVuSans-Oblique-77" stroke-linecap="butt" stroke-linejoin="round" transform="matrix(1,0,0,1,225.737,0.09375)"></use></g></g><g id="text_3" stroke-linecap="butt" stroke-linejoin="round"><g stroke-linecap="butt" stroke-linejoin="round" transform="matrix(0.14,0,0,-0.14,94.65,77.3975)"><use width="100%" height="100%" xlink:href="#DejaVuSans-Oblique-77" stroke-linecap="butt" stroke-linejoin="round" transform="matrix(1,0,0,1,0,0.09375)"></use></g></g><g id="patch_14" stroke-linecap="butt" stroke-linejoin="round"><path d=" M 12.87 29.9294 C 13.5144 29.9294 14.1326 29.6875 14.5883 29.2572 C 15.044 28.8268 15.3 28.243 15.3 27.6344 C 15.3 27.0257 15.044 26.4419 14.5883 26.0115 C 14.1326 25.5812 13.5144 25.3394 12.87 25.3394 C 12.2256 25.3394 11.6074 25.5812 11.1517 26.0115 C 10.696 26.4419 10.44 27.0257 10.44 27.6344 C 10.44 28.243 10.696 28.8268 11.1517 29.2572 C 11.6074 29.6875 12.2256 29.9294 12.87 29.9294 Z" stroke="#000000" stroke-width="2" stroke-linecap="butt" stroke-linejoin="miter" clip-path="url(#pcc3cefee9c)"/></g><g id="patch_15" stroke-linecap="butt" stroke-linejoin="round"><path d=" M 110.07 29.9294 C 110.714 29.9294 111.333 29.6875 111.788 29.2572 C 112.244 28.8268 112.5 28.243 112.5 27.6344 C 112.5 27.0257 112.244 26.4419 111.788 26.0115 C 111.333 25.5812 110.714 25.3394 110.07 25.3394 C 109.426 25.3394 108.807 25.5812 108.352 26.0115 C 107.896 26.4419 107.64 27.0257 107.64 27.6344 C 107.64 28.243 107.896 28.8268 108.352 29.2572 C 108.807 29.6875 109.426 29.9294 110.07 29.9294 Z" stroke="#000000" stroke-width="2" stroke-linecap="butt" stroke-linejoin="miter" clip-path="url(#pcc3cefee9c)"/></g><g id="patch_16" stroke-linecap="butt" stroke-linejoin="round"><path d=" M 12.87 121.729 C 13.5144 121.729 14.1326 121.488 14.5883 121.057 C 15.044 120.627 15.3 120.043 15.3 119.434 C 15.3 118.826 15.044 118.242 14.5883 117.812 C 14.1326 117.381 13.5144 117.139 12.87 117.139 C 12.2256 117.139 11.6074 117.381 11.1517 117.812 C 10.696 118.242 10.44 118.826 10.44 119.434 C 10.44 120.043 10.696 120.627 11.1517 121.057 C 11.6074 121.488 12.2256 121.729 12.87 121.729 Z" stroke="#000000" stroke-width="2" stroke-linecap="butt" stroke-linejoin="miter" clip-path="url(#pcc3cefee9c)"/></g></g></g></svg>